<svg width="203" height="594" viewBox="0 0 203 594" xmlns="http://www.w3.org/2000/svg">
<path d="M102.843 311.436V232.186C102.843 230.982 105.167 228.6 106.444 228.311C108.875 227.762 121.765 227.862 124.579 228.201C127.392 228.54 129.407 230.676 129.497 233.563C128.593 258.369 126.231 281.159 111.822 301.952C109.54 305.242 106.547 309.866 102.839 311.433L102.843 311.436Z" />
<path d="M99.5704 311.436C99.2246 311.839 96.9 309.963 96.5143 309.583C90.2257 303.433 82.7698 289.182 79.9364 280.819C75.7329 268.408 72.8663 247.638 72.9395 234.528C72.9594 231.082 74.2797 228.62 77.8413 228.214C80.8011 227.878 93.4149 227.739 95.9655 228.314C97.4521 228.647 99.5671 231.328 99.5671 232.659V311.44L99.5704 311.436Z" />
<path d="M92.9294 170.337C95.5931 170.068 98.3932 171.498 99.1847 174.133C99.9762 176.767 99.8831 187.904 99.5871 191.064C99.4142 192.897 98.5296 195.385 96.7537 196.177C94.4425 197.205 80.4253 197.238 77.3758 196.892C75.5833 196.689 73.8441 195.924 73.0426 194.215C72.158 192.325 72.2012 182.761 72.4639 180.293C72.7533 177.602 73.884 175.094 76.5577 174.106C79.2314 173.118 90.1159 170.63 92.926 170.344L92.9294 170.337Z" />
<path d="M107.402 170.324L124.811 173.737C127.705 174.698 128.692 175.929 129.607 178.756C130.548 181.664 130.408 190.246 129.916 193.353C129.031 198.948 117.705 196.626 113.84 196.4C109.969 196.17 105.167 197.764 103.548 193.14C102.514 190.183 102.43 178.976 102.883 175.653C103.248 172.948 104.828 171.155 107.402 170.32V170.324Z" />
<path d="M105.976 200.259C107.818 199.71 117.359 200.029 119.893 200.169C121.463 200.255 125.058 200.445 126.341 200.731C129.198 201.363 129.767 204.929 129.963 207.394C130.189 210.288 130.412 220.687 128.762 222.589C128.267 223.161 126.754 223.817 125.999 224.033C122.923 224.901 112.194 224.821 108.693 224.472C104.991 224.103 103.272 222.915 102.846 219.103C102.49 215.936 102.487 208.236 102.846 205.075C103.032 203.435 104.333 200.751 105.979 200.262L105.976 200.259Z" />
<path d="M98.483 201.712C99.0716 202.421 99.4773 203.665 99.5804 204.593C99.9562 207.94 99.8897 215.231 99.5871 218.647C99.2645 222.297 97.9675 224.053 94.1964 224.475C90.4252 224.898 82.4871 224.831 78.7559 224.495C74.9448 224.149 72.9162 223.115 72.4672 219.1C72.1114 215.91 72.0549 203.798 74.3562 201.816C74.9714 201.287 76.5876 200.781 77.4157 200.671C79.4409 200.402 82.69 200.239 84.8283 200.139C87.4522 200.019 93.794 199.736 96.0553 200.169C96.5475 200.262 98.1804 201.346 98.483 201.712Z" />
</svg>
