<svg width="203" height="594" viewBox="0 0 203 594" xmlns="http://www.w3.org/2000/svg">
<path d="M22.4677 230.55L20.9347 221.571C16.1559 207.653 14.1406 195.545 16.4552 180.815C18.2443 169.426 23.3557 160.414 32.052 152.95C34.443 155.621 39.0356 158.957 39.6508 162.64C41.43 173.278 39.1187 197.441 35.3143 207.633C32.3014 215.703 25.77 222.619 22.4677 230.55Z" />
<path d="M179.936 230.08L171.056 215.361C164.079 202.481 161.15 180.819 162.164 166.245C162.639 159.403 164.572 158.082 169.314 153.864C169.6 153.612 169.736 153.332 169.666 152.943C181.356 162.147 186.121 175.014 186.966 189.621C187.807 204.184 182.273 216.116 179.932 230.08H179.936Z" />
</svg>
