<svg width="203" height="594" viewBox="0 0 203 594" xmlns="http://www.w3.org/2000/svg">
<path d="M55.719 442.027C55.8544 441.507 63.6078 446.609 63.7705 447.355C66.5142 459.935 66.8537 471.395 68.2703 484.162C70.0163 499.886 72.547 515.557 73.4017 531.394C73.6877 536.687 73.9471 542.329 73.1689 547.515L69.8932 549.85L68.6095 538.526C64.6189 516 57.9493 492.475 55.9241 469.698C55.0661 460.065 54.234 447.732 55.719 442.027Z" />
<path d="M84.0581 559.223C83.6565 560.642 81.9596 562.405 81.7923 562.243C81.625 562.082 80.6449 548.26 79.9499 540.267C79.1484 531.095 78.9422 521.871 78.5398 512.69C77.7583 494.967 76.2552 474.219 79.1418 456.709C80.1627 450.525 82.5538 444.81 84.855 439.042C89.8799 455.272 92.1014 472.796 88.6794 489.628C85.4071 505.724 81.5029 520.008 82.7566 536.99C83.1557 542.409 86.0589 548.164 85.5035 553.313C85.3206 555.009 84.4403 556.124 84.2574 557.821C84.1925 558.421 84.1612 558.859 84.0581 559.223Z" />
<path d="M63.5946 554.996C64.7619 547.026 63.5581 538.909 62.0516 531.055C56.4946 502.069 45.5669 479.578 49.6406 448.699C50.1295 445.003 50.9077 440.645 52.1448 437.179C53.9073 445.332 52.9363 453.535 53.2921 461.742C53.8408 474.465 56.2751 487.422 58.5963 499.913C61.1337 513.562 66.2817 530.134 67.3192 543.55C67.6684 548.077 67.6418 552.228 63.5946 554.996Z" />
<path d="M147.432 442.027C147.297 441.507 139.543 446.609 139.381 447.355C136.637 459.935 136.297 471.395 134.881 484.162C133.135 499.886 130.604 515.557 129.749 531.395C129.463 536.687 129.204 542.329 129.982 547.515L133.258 549.85L134.542 538.527C138.532 516 145.202 492.475 147.227 469.699C148.085 460.065 148.917 447.732 147.432 442.027Z" />
<path d="M119.093 559.223C119.495 560.642 121.192 562.405 121.359 562.243C121.526 562.082 122.506 548.26 123.201 540.267C124.003 531.095 124.209 521.871 124.611 512.69C125.393 494.967 126.896 474.219 124.009 456.709C122.989 450.525 120.597 444.81 118.296 439.042C113.271 455.272 111.05 472.796 114.472 489.628C117.744 505.724 121.648 520.008 120.395 536.99C119.996 542.409 117.092 548.164 117.648 553.313C117.831 555.009 118.711 556.124 118.894 557.821C118.959 558.421 118.99 558.859 119.093 559.223Z" />
<path d="M139.556 554.996C138.389 547.026 139.593 538.909 141.1 531.055C146.657 502.069 157.584 479.578 153.51 448.699C153.022 445.003 152.243 440.645 151.006 437.179C149.244 445.332 150.215 453.535 149.859 461.742C149.31 474.465 146.876 487.422 144.555 499.913C142.017 513.562 136.869 530.134 135.832 543.55C135.483 548.077 135.509 552.228 139.556 554.996Z" />
</svg>
