<svg width="203" height="594" viewBox="0 0 203 594" xmlns="http://www.w3.org/2000/svg">
<path d="M63.4651 112.37C67.8183 111.472 84.1267 112.849 88.9388 113.787C96.8037 115.317 98.5629 120.526 99.1017 127.931C99.5307 133.806 99.9031 154.23 98.4133 159.027C95.3671 168.827 73.465 171.944 64.7721 171.169C52.1516 170.041 40.459 158.591 32.9399 149.224C38.9991 140.485 44.4397 130.33 51.4599 122.329C53.4885 120.017 60.7847 112.925 63.4685 112.37H63.4651Z" />
<path d="M128.443 112.4C136.431 112.007 138.702 111.402 144.901 116.698C154.891 125.23 162.077 138.113 169.118 149.051C169.29 150.155 159.962 159.36 158.453 160.66C146.767 170.716 136.866 173.145 121.619 169.921C115.21 168.567 106.042 166.026 104.023 159.007C102.331 153.119 102.643 132.784 103.315 126.062C103.817 121.025 106.561 115.879 111.619 114.266C115.29 113.095 124.279 112.606 128.446 112.403L128.443 112.4Z" />
</svg>
