<svg width="203" height="594" viewBox="0 0 203 594" xmlns="http://www.w3.org/2000/svg">
<g clip-path="url(#clip0_70_766)">
<path d="M201.435 303.958L195.359 303.952L197.691 255.332L195.892 266.382C194.375 278.877 193.667 291.348 193.953 303.952L188.346 303.489C188.12 297.362 188.662 291.148 188.346 285.024C187.631 271.292 184.389 257.571 183.211 243.872C182.067 230.546 183.926 219.998 187.81 207.334C187.993 206.742 187.987 206.157 188.585 205.771C190.807 209.33 193.856 212.497 196.021 216.093C205.632 232.033 202.09 254.078 201.412 271.908L201.435 303.955V303.958Z" />
<path d="M14.064 303.492L8.45386 303.958C8.30088 299.527 8.65006 295.043 8.47381 290.612C8.04814 280.047 6.86092 268.964 5.03852 258.515C4.93542 257.933 4.95206 256.25 4.25369 256.27L7.0538 303.952L0.97803 303.958C1.53672 293.992 1.76286 283.8 1.46689 273.78C0.91817 255.265 -3.47488 233.803 6.21243 216.851C8.53034 212.793 12.072 209.43 14.3002 205.302C15.3776 212.35 18.0181 219.22 19.059 226.258C20.2662 234.422 19.1089 242.698 18.2675 250.888C16.4618 268.435 12.8868 285.656 14.0707 303.492H14.064Z" />
<path d="M18.6766 302.964L17.0803 303.393C16.5649 303.21 16.4684 302.807 16.392 302.325C15.8865 299.082 16.2323 291.853 16.3753 288.277C17.1103 270.141 20.908 251.47 23.3058 233.494L33.2126 216.998C34.9119 227.692 35.0948 237.748 33.0795 248.416C29.5644 267.018 19.1887 283.783 18.6766 302.964Z" />
<path d="M185.542 303.492L183.747 302.741C183.976 287.905 176.966 274.995 172.806 261.299C168.313 246.51 166.364 231.907 169.197 216.528L176.44 229.142L179.819 236.983C182.134 259.071 187.551 281.182 185.539 303.492H185.542Z" />
</g>
<defs>
<clipPath id="clip0_70_766">
<rect width="202.608" height="593.45" transform="translate(0 0.455994)"/>
</clipPath>
</defs>
</svg>
