<svg width="203" height="594" viewBox="0 0 203 594" xmlns="http://www.w3.org/2000/svg">
<path d="M47.2331 201.094L44.9285 195.691C41.7293 185.376 41.3901 174.811 43.0362 164.16C46.2953 166.734 47.8383 167.137 48.5799 171.465C49.418 176.375 48.2573 176.424 47.3528 180.406C45.833 187.109 46.2919 194.341 47.2331 201.094Z" />
<path d="M155.636 201.094C154.758 201.19 155.26 200.112 155.307 199.597C155.869 193.632 156.65 187.791 155.523 181.813C155.06 179.358 153.258 176.435 153.291 174.239C153.361 169.542 155.22 166.256 159.374 164.163C161.402 176.94 160.089 189.022 155.636 201.097V201.094Z" />
</svg>
