<svg width="203" height="594" viewBox="0 0 203 594" xmlns="http://www.w3.org/2000/svg">
<g clip-path="url(#clip0_70_766)">
<path d="M126.674 37.4544C126.93 37.7404 129.973 35.1325 131.113 37.4544C132.789 40.874 129.644 54.1 125.916 56.1026C125.084 56.5483 123.644 56.4685 123.378 56.9342C122.896 57.7825 122.514 62.8952 121.972 64.7814C117.588 80.0066 100.382 87.2151 87.6685 76.251C81.8122 71.1981 79.3713 64.2658 79.0088 56.6315C73.7777 57.1837 71.5729 49.5361 70.8113 45.4313C70.0498 41.3264 69.082 34.0547 75.2709 37.4577C73.9373 25.8882 74.6756 14.2622 84.1468 6.36182C96.4912 -3.93694 117.203 -0.454123 124.279 14.3753C127.748 21.647 126.847 29.7103 126.677 37.4577L126.674 37.4544Z" />
<path d="M0.978027 307.228C1.56665 306.673 15.4275 306.506 17.1202 306.739C17.9815 306.856 18.0913 306.862 18.7497 307.448C20.612 309.108 24.8022 315.465 25.6137 317.876C27.1201 322.34 26.5282 327.433 27.2099 332.177C27.6389 335.157 31.7227 347.442 25.0683 346.514C20.652 345.898 22.2249 330.909 17.9782 328.295C12.8369 331.718 13.8446 342.602 16.7744 347.296C19.6277 351.866 27.9116 353.32 28.0014 358.882C28.1078 365.298 21.633 360.688 18.5934 359.031C16.2722 357.764 11.2939 354.873 9.61114 353.057C7.7056 350.998 0.978027 337.888 0.978027 335.513V307.228Z" />
<path d="M201.435 307.228C201.442 317.986 203.707 330.593 199.649 340.746C195.449 351.247 192.004 354.86 182.124 360.146C179.723 361.43 174.971 364.613 174.774 359.823C174.495 353.044 182.629 352.249 185.752 347.878C188.802 343.613 189.586 332.642 186.058 328.561C183.773 327.516 182.629 331.325 182.147 333.048C181.229 336.331 181.515 348.603 175.845 346.198C172.014 344.574 175.759 331.425 176.194 328.029C176.421 326.279 176.061 324.326 176.261 322.483C176.949 316.176 180.285 310.95 184.941 306.856L201.435 307.225V307.228Z" />
<path d="M113.588 80.4757L100.977 118.807L88.8223 80.4757C90.9839 81.2175 92.5502 82.4782 94.8814 83.057C101.529 84.7103 107.602 83.4096 113.588 80.4757Z" />
<path d="M52.5172 403.139C51.8553 400.31 51 398.956 51 397.456C51 396.956 53.0793 397.456 54 397.956C54.9207 398.456 57.2734 400.276 57.5 400.956C58 402.456 58.086 403.411 58 405.456C57.8703 408.496 56.6276 411.063 56.5844 414.033C56.4447 423.55 63.9602 441.844 63.5 444.456C63.418 444.921 55.6992 439.958 55.5 439.456C54.8959 437.933 54.2565 435.775 53.8907 433.56C52.2578 423.697 54.8152 412.956 52.5172 403.139Z" />
<path d="M80.5651 581.325L80.5618 581.322C78.8059 583.62 79.2182 587.825 77.346 590.496C75.038 593.786 70.0231 594.88 66.5346 592.961C61.8522 590.383 66.375 584.083 67.7917 580.71C66.1588 582.632 62.9197 586.072 62.085 588.321C61.3368 590.336 62.5872 593.174 59.5809 593.33C55.7233 593.53 56.2055 589.588 56.7874 586.764C57.2065 584.731 58.7927 583.121 59.3814 581.182C56.5813 583.534 54.2667 587.173 54.7156 591.002C51.2205 591.614 48.4303 588.946 49.9268 585.506C50.286 584.678 54.28 580.786 53.7745 580.247C52.7569 581.298 50.8613 582.217 50.0266 583.274C49.305 584.189 48.3904 587.629 47.8617 587.755C45.2644 588.381 44.3499 585.882 44.3965 583.753C44.5195 578.088 54.4596 570.438 58.2241 566.226C61.666 562.377 66.2586 554.494 70.5818 552.408C76.0789 549.76 78.9699 553.222 80.4321 558.016C80.6079 558.593 81.372 564.356 81.4419 564.435C81.5118 564.515 84.4844 561.923 84.5634 562.244C84.6424 562.565 87.2437 571.96 84.0868 577.606C83.2887 579.03 81.2934 580.367 80.5651 581.325Z" />
<path d="M72.474 439.704C71.5822 440.96 66.9419 445.985 66.4772 444.975C65.7324 443.355 65.1272 439.142 63.9306 434.741C62.7002 430.21 58.4069 419.658 58.4202 415.903C58.4435 410.088 62.3078 409.766 64.9183 406.476C66.8837 403.997 67.0566 401.612 68.0476 398.845C68.2073 398.396 68.1009 397.77 68.7327 397.907C69.2515 405.89 73.3685 415.507 81.8187 417.546C79.278 423.341 75.2608 429.169 73.6379 435.303C73.3785 436.291 72.7532 439.31 72.474 439.704Z" />
<path d="M79.0271 445.428C78.1557 448.267 77.28 449.449 76.7971 452.025C72.7665 473.541 74.7386 503.682 76.2151 525.773C76.4027 528.576 76.7457 531.389 77.0893 534.206C77.6777 539.031 78.2676 543.868 78.0807 548.692C78.0751 548.829 78.0927 549.001 78.1113 549.181C78.1695 549.75 78.2367 550.406 77.6185 550.322C76.1888 544.917 75.9706 539.305 75.7526 533.699C75.6436 530.894 75.5346 528.092 75.274 525.317C74.6383 518.564 73.751 511.83 72.8638 505.096C72.0476 498.902 71.2315 492.708 70.6116 486.501C70.1388 481.774 69.4698 476.012 68.8157 470.377L68.8157 470.377C67.5297 459.299 66.3009 448.714 66.7315 447.461C67.0758 446.459 67.3359 446.572 69.4902 444.838C69.812 444.579 71.7973 442.867 72.1063 442.616C72.5806 442.23 72.074 448.516 72.2546 448.654C72.4352 448.792 74.212 448.288 75.1951 447.789C76.1783 447.291 79.2422 444.727 79.0271 445.428Z" />
<path d="M77.0555 433.261C76.3462 435.076 75.9772 436.413 75.4173 438.281C74.9113 439.968 75.021 439.603 74.5779 441.245C74.5355 441.401 74.0499 443.428 74.0154 443.597C73.9476 443.929 73.6384 445.412 73.6795 445.631C73.7207 445.851 79.0427 443.476 79.5838 442.935C80.1248 442.394 80.2866 441.738 80.9115 440.315C82.8008 436.014 84.7299 431.623 85.497 426.601C85.6799 425.4 86.5978 417.33 86.488 416.854C86.4548 416.708 85.813 415.93 85.5536 416.365C84.3589 419.2 82.9147 421.883 81.5623 424.689C79.5328 427.838 78.4426 429.708 77.0555 433.261Z" />
<path d="M52.5172 403.139C51.8553 400.31 51 398.956 51 397.456C51 396.956 53.0793 397.456 54 397.956C54.9207 398.456 57.2734 400.276 57.5 400.956C58 402.456 58.086 403.411 58 405.456C57.8703 408.496 56.6276 411.063 56.5844 414.033C56.4447 423.55 63.9602 441.844 63.5 444.456C63.418 444.921 55.6992 439.958 55.5 439.456C54.8959 437.933 54.2565 435.775 53.8907 433.56C52.2578 423.697 54.8152 412.956 52.5172 403.139Z" />
<path d="M80.5651 581.325L80.5618 581.322C78.8059 583.62 79.2182 587.825 77.346 590.496C75.038 593.786 70.0231 594.88 66.5346 592.961C61.8522 590.383 66.375 584.083 67.7917 580.71C66.1588 582.632 62.9197 586.072 62.085 588.321C61.3368 590.336 62.5872 593.174 59.5809 593.33C55.7233 593.53 56.2055 589.588 56.7874 586.764C57.2065 584.731 58.7927 583.121 59.3814 581.182C56.5813 583.534 54.2667 587.173 54.7156 591.002C51.2205 591.614 48.4303 588.946 49.9268 585.506C50.286 584.678 54.28 580.786 53.7745 580.247C52.7569 581.298 50.8613 582.217 50.0266 583.274C49.305 584.189 48.3904 587.629 47.8617 587.755C45.2644 588.381 44.3499 585.882 44.3965 583.753C44.5195 578.088 54.4596 570.438 58.2241 566.226C61.666 562.377 66.2586 554.494 70.5818 552.408C76.0789 549.76 78.9699 553.222 80.4321 558.016C80.6079 558.593 81.372 564.356 81.4419 564.435C81.5118 564.515 84.4844 561.923 84.5634 562.244C84.6424 562.565 87.2437 571.96 84.0868 577.606C83.2887 579.03 81.2934 580.367 80.5651 581.325Z" />
<path d="M72.474 439.704C71.5822 440.96 66.9419 445.985 66.4772 444.975C65.7324 443.355 65.1272 439.142 63.9306 434.741C62.7002 430.21 58.4069 419.658 58.4202 415.903C58.4435 410.088 62.3078 409.766 64.9183 406.476C66.8837 403.997 67.0566 401.612 68.0476 398.845C68.2073 398.396 68.1009 397.77 68.7327 397.907C69.2515 405.89 73.3685 415.507 81.8187 417.546C79.278 423.341 75.2608 429.169 73.6379 435.303C73.3785 436.291 72.7532 439.31 72.474 439.704Z" />
<path d="M79.0271 445.428C78.1557 448.267 77.28 449.449 76.7971 452.025C72.7665 473.541 74.7386 503.682 76.2151 525.773C76.4027 528.576 76.7457 531.389 77.0893 534.206C77.6777 539.031 78.2676 543.868 78.0807 548.692C78.0751 548.829 78.0927 549.001 78.1113 549.181C78.1695 549.75 78.2367 550.406 77.6185 550.322C76.1888 544.917 75.9706 539.305 75.7526 533.699C75.6436 530.894 75.5346 528.092 75.274 525.317C74.6383 518.564 73.751 511.83 72.8638 505.096C72.0476 498.902 71.2315 492.708 70.6116 486.501C70.1388 481.774 69.4698 476.012 68.8157 470.377L68.8157 470.377C67.5297 459.299 66.3009 448.714 66.7315 447.461C67.0758 446.459 67.3359 446.572 69.4902 444.838C69.812 444.579 71.7973 442.867 72.1063 442.616C72.5806 442.23 72.074 448.516 72.2546 448.654C72.4352 448.792 74.212 448.288 75.1951 447.789C76.1783 447.291 79.2422 444.727 79.0271 445.428Z" />
<path d="M77.0555 433.261C76.3462 435.076 75.9772 436.413 75.4173 438.281C74.9113 439.968 75.021 439.603 74.5779 441.245C74.5355 441.401 74.0499 443.428 74.0154 443.597C73.9476 443.929 73.6384 445.412 73.6795 445.631C73.7207 445.851 79.0427 443.476 79.5838 442.935C80.1248 442.394 80.2866 441.738 80.9115 440.315C82.8008 436.014 84.7299 431.623 85.497 426.601C85.6799 425.4 86.5978 417.33 86.488 416.854C86.4548 416.708 85.813 415.93 85.5536 416.365C84.3589 419.2 82.9147 421.883 81.5623 424.689C79.5328 427.838 78.4426 429.708 77.0555 433.261Z" />
<path d="M150.634 403.139C151.296 400.31 152.151 398.956 152.151 397.456C152.151 396.956 150.072 397.456 149.151 397.956C148.23 398.456 145.878 400.276 145.651 400.956C145.151 402.456 145.065 403.411 145.151 405.456C145.281 408.496 146.524 411.063 146.567 414.033C146.706 423.55 139.191 441.844 139.651 444.456C139.733 444.922 147.452 439.958 147.651 439.456C148.255 437.933 148.895 435.775 149.26 433.56C150.893 423.697 148.336 412.956 150.634 403.139Z" />
<path d="M122.586 581.325L122.589 581.322C124.345 583.62 123.933 587.825 125.805 590.496C128.113 593.786 133.128 594.88 136.617 592.961C141.299 590.383 136.776 584.083 135.36 580.71C136.992 582.632 140.232 586.072 141.066 588.321C141.814 590.336 140.564 593.174 143.57 593.33C147.428 593.53 146.946 589.588 146.364 586.764C145.945 584.731 144.359 583.121 143.77 581.182C146.57 583.534 148.885 587.173 148.436 591.002C151.931 591.614 154.721 588.946 153.224 585.506C152.865 584.678 148.871 580.786 149.377 580.247C150.394 581.298 152.29 582.217 153.125 583.274C153.846 584.189 154.761 587.629 155.29 587.755C157.887 588.381 158.801 585.882 158.755 583.753C158.632 578.088 148.692 570.438 144.927 566.226C141.485 562.377 136.893 554.494 132.569 552.408C127.072 549.76 124.181 553.222 122.719 558.016C122.543 558.593 121.779 564.356 121.709 564.435C121.639 564.515 118.667 561.923 118.588 562.244C118.509 562.565 115.908 571.96 119.064 577.606C119.863 579.03 121.858 580.367 122.586 581.325Z" />
<path d="M130.677 439.704C131.569 440.961 136.209 445.985 136.674 444.975C137.419 443.355 138.024 439.142 139.221 434.741C140.451 430.21 144.744 419.659 144.731 415.903C144.708 410.088 140.843 409.766 138.233 406.476C136.267 403.997 136.094 401.612 135.103 398.845C134.944 398.396 135.05 397.77 134.418 397.907C133.9 405.89 129.783 415.507 121.332 417.546C123.873 423.341 127.89 429.169 129.513 435.303C129.773 436.291 130.398 439.31 130.677 439.704Z" />
<path d="M124.124 445.428C124.995 448.267 125.871 449.449 126.354 452.025C130.385 473.541 128.413 503.682 126.936 525.773C126.748 528.576 126.405 531.389 126.062 534.206C125.473 539.031 124.884 543.868 125.07 548.692C125.076 548.829 125.058 549.001 125.04 549.181C124.982 549.75 124.914 550.406 125.533 550.322C126.962 544.917 127.181 539.305 127.398 533.699C127.508 530.894 127.617 528.092 127.877 525.317C128.513 518.564 129.4 511.83 130.287 505.096C131.104 498.902 131.92 492.708 132.54 486.501C133.012 481.774 133.681 476.012 134.335 470.377L134.335 470.377C135.621 459.3 136.85 448.714 136.42 447.461C136.075 446.459 135.815 446.572 133.661 444.838C133.339 444.579 131.354 442.867 131.045 442.616C130.57 442.23 131.077 448.516 130.897 448.654C130.716 448.792 128.939 448.288 127.956 447.789C126.973 447.291 123.909 444.728 124.124 445.428Z" />
<path d="M126.096 433.261C126.805 435.076 127.174 436.413 127.734 438.281C128.24 439.968 128.13 439.603 128.573 441.245C128.616 441.401 129.101 443.428 129.136 443.597C129.204 443.929 129.513 445.412 129.472 445.632C129.43 445.851 124.108 443.476 123.567 442.935C123.026 442.394 122.865 441.738 122.24 440.315C120.35 436.014 118.421 431.623 117.654 426.601C117.471 425.4 116.553 417.33 116.663 416.854C116.696 416.708 117.338 415.93 117.598 416.365C118.792 419.2 120.236 421.883 121.589 424.689C123.618 427.838 124.709 429.708 126.096 433.261Z" />
</g>
<defs>
<clipPath id="clip0_70_766">
<rect width="202.608" height="593.45" transform="translate(0 0.455994)"/>
</clipPath>
</defs>
</svg>
