<svg width="203" height="594" viewBox="0 0 203 594" xmlns="http://www.w3.org/2000/svg">
<path d="M151.901 169.306C151.562 174.209 151.146 176.548 148.542 180.669C145.939 184.791 142.098 188.396 138.353 191.74C144.512 190.139 149.238 184.255 152.606 179.122C155.34 186.191 152.836 190.692 148.622 196.177L138.346 206.935C138.489 207.437 139.427 206.579 139.707 206.426C145.23 203.429 150.032 197.797 153.537 192.681C153.823 198.526 153.055 204.393 150.431 209.679C147.512 215.557 142.61 219.862 138.343 224.702L143.025 221.907L151.891 211.851C152.703 215.886 152.427 220.171 152.836 224.236C153.514 230.969 156.198 241.673 154.572 247.954C153.042 253.858 145.37 259.623 141.379 264.207L127.139 281.977C128.29 276.654 130.159 271.542 131.203 266.179C134.958 246.899 134.209 225.181 134.602 205.511C134.791 195.954 135.629 186.131 135.104 176.518C135.061 175.726 134.974 175.147 134.608 174.445C138.137 174.199 141.901 173.85 145.254 172.702C147.788 171.837 149.534 170.327 151.895 169.299L151.901 169.306Z" />
<path d="M67.7981 174.445C67.2261 180.423 67.2328 186.447 67.3093 192.468C67.542 210.777 67.7615 230.819 69.2015 249.018C70.0927 260.262 71.8885 270.763 75.2673 281.514L65.6997 269.353C61.5095 264.021 55.6931 259.277 51.4564 254.151C47.5422 249.417 47.4192 246.726 47.7085 240.612C48.1574 231.072 50.9077 221.515 50.043 211.855L59.3812 221.911C60.8876 222.839 62.0848 224.608 64.0569 224.472L59.145 219.808C52.168 211.928 48.0743 203.489 48.8691 192.688C51.8355 197.963 55.9691 202.005 60.9142 205.415C61.8387 206.053 62.9461 207.028 64.0569 207.174C57.0366 199.42 45.2742 191.187 50.0463 179.129L52.1747 182.831C54.6556 185.762 57.735 188.859 61.1038 190.732C61.8986 191.174 63.6312 192.145 64.5291 191.979L57.5421 185.769C56.1554 184.142 51.4331 177.283 51.0806 175.513C50.7015 173.604 51.4331 171.565 50.5086 169.778C52.8564 170.686 54.885 172.25 57.3093 173.018C60.6216 174.066 64.3296 174.335 67.7981 174.445Z" />
</svg>
