<svg width="203" height="594" viewBox="0 0 203 594" xmlns="http://www.w3.org/2000/svg">
<path d="M73.4084 327.771C74.1799 328.314 74.8018 329.97 75.2075 330.875C84.6654 351.902 90.5849 376.827 89.3112 400.026C89.1249 403.405 88.4598 411.106 85.7961 413.342C81.8486 416.655 76.9002 412.869 74.8783 409.283C68.8424 398.592 73.4151 371.674 73.8906 358.88C74.2764 348.555 73.8507 338.06 73.4084 327.771Z" />
<path d="M92.0882 383.403C91.4064 383.32 91.3 381.367 91.2169 380.775C87.0999 351.456 78.5166 333.689 69.541 306.618C65.128 293.309 61.7393 279.68 58.4536 266.052C73.3753 279.77 83.4517 297.88 96.5078 313.298C98.839 317.157 98.011 331.803 97.6951 336.883C97.2727 343.659 96.5577 351.11 95.7729 357.866C94.7785 366.408 92.9162 374.841 92.0882 383.403Z" />
<path d="M64.4526 399.696V399.693C60.289 400.591 58.3436 396.117 56.0057 393.569L50.0331 384.115C51.1744 389.636 57.6869 397.609 57.1869 398.109C56.719 398.577 55.5271 396.933 54.1869 396.109C52.8467 395.285 51.0444 396.021 50.1869 394.609C46.9011 389.198 45.7565 382.862 44.5592 376.035C38.8792 343.629 41.0541 310.477 54.8318 280.432L57.0466 275.875C61.0373 292.092 68.2537 307.477 70.1293 324.269C71.5261 336.773 71.2766 349.64 70.6049 362.141C69.9298 374.695 68.8789 387.894 64.4526 399.696Z" />
<path d="M42.0917 313.271C41.2935 313.391 41.5928 312.16 41.6327 311.645C42.1981 304.656 42.2978 297.567 43.0328 290.601C44.2699 278.902 47.2862 267.403 48.8658 255.767C51.0906 259.329 54.7287 264.948 55.1278 269.142C55.6167 274.252 47.3893 291.756 45.4937 298.209C44.0537 303.109 42.9896 308.242 42.085 313.268L42.0917 313.271Z" />
<path d="M129.743 327.771C128.971 328.314 128.349 329.97 127.944 330.875C118.486 351.902 112.566 376.827 113.84 400.026C114.026 403.405 114.691 411.106 117.355 413.342C121.302 416.655 126.251 412.869 128.273 409.283C134.309 398.592 129.736 371.674 129.261 358.881C128.875 348.555 129.3 338.06 129.743 327.771Z" />
<path d="M111.063 383.403C111.745 383.32 111.851 381.367 111.934 380.775C116.051 351.456 124.635 333.689 133.61 306.618C138.023 293.309 141.412 279.681 144.698 266.052C129.776 279.77 119.7 297.88 106.643 313.298C104.312 317.157 105.14 331.803 105.456 336.883C105.879 343.659 106.594 351.11 107.378 357.866C108.373 366.408 110.235 374.841 111.063 383.403Z" />
<path d="M138.699 399.696V399.693C142.862 400.591 144.808 396.117 147.145 393.569L153.118 384.115C151.977 389.636 145.464 397.609 145.964 398.109C146.432 398.577 147.624 396.933 148.964 396.109C150.304 395.285 152.107 396.021 152.964 394.609C156.25 389.198 157.395 382.862 158.592 376.035C164.272 343.629 162.097 310.477 148.319 280.432L146.104 275.875C142.114 292.092 134.897 307.477 133.022 324.269C131.625 336.773 131.874 349.64 132.546 362.141C133.221 374.695 134.272 387.894 138.699 399.696Z" />
<path d="M161.059 313.271C161.858 313.391 161.558 312.16 161.518 311.645C160.953 304.656 160.853 297.567 160.118 290.601C158.881 278.902 155.865 267.403 154.285 255.767C152.061 259.329 148.422 264.948 148.023 269.142C147.534 274.252 155.762 291.756 157.657 298.209C159.097 303.109 160.162 308.242 161.066 313.268L161.059 313.271Z" />
</svg>
