<svg width="203" height="594" viewBox="0 0 203 594" xmlns="http://www.w3.org/2000/svg">
<path d="M80.8809 73.224C80.8709 72.9845 79.2181 71.3579 81.1203 72.5155C82.1712 74.7775 84.7618 76.5372 85.7927 78.5963C87.9377 82.8907 89.9563 90.6248 91.3963 95.4316C92.0514 97.617 96.4045 112.4 95.8325 113.198C89.657 109.795 82.3042 110.707 75.5733 109.865C66.1787 108.691 57.0301 105.853 47.7119 104.31L78.3202 87.0189L79.4409 102.73L79.0252 106.652C79.7934 106.489 80.116 104.513 80.2125 103.874C80.3821 102.763 80.8875 99.7892 80.8875 98.941C80.8875 90.5217 81.2899 81.5701 80.8875 73.2273L80.8809 73.224Z" />
<path d="M121.532 72.5255C121.196 73.2307 121.06 73.7995 121.037 74.5978C120.771 83.1768 120.644 95.212 122.054 103.561C122.124 103.974 122.882 107.347 123.398 106.652C122.118 100.109 123.824 93.5721 123.873 87.0156L153.773 104.31C146.497 105.724 139.237 107.686 131.911 108.854C123.508 110.194 114.402 109.898 106.587 113.198C109.005 104.852 110.738 96.2366 113.358 87.9536C115.377 81.5701 116.767 78.6063 120.491 73.1342C120.777 72.7117 120.422 72.2693 121.536 72.5288L121.532 72.5255Z" />
</svg>
