<svg width="203" height="594" viewBox="0 0 203 594" xmlns="http://www.w3.org/2000/svg">
<path d="M193.953 208.578C192.413 206.562 188.748 202.274 188.379 199.899C187.87 196.633 188.565 192.199 188.346 188.712C188.113 185.023 186.763 180.676 186.926 177.007C187.066 173.84 188.891 171.002 189.29 167.902L191.006 175.293C192.899 186.281 192.376 197.554 193.953 208.575V208.578Z" />
<path d="M8.92603 208.109C9.63437 196.679 9.81728 185.16 11.8625 173.883L13.5884 167.905C13.5053 170.929 15.2379 173.574 15.4807 176.531C15.8398 180.949 14.3633 185.689 14.064 190.116C13.8412 193.446 14.5329 197.734 14.0341 200.838C13.7281 202.73 10.1764 206.373 8.92603 208.109Z" />
</svg>
