<svg width="208" height="590" viewBox="0 0 208 590" xmlns="http://www.w3.org/2000/svg">
<path d="M84.8944 490.439C81.9215 493.207 77.9208 493.717 74.4107 491.636C70.9839 489.606 71.3076 485.648 70.7604 482.167C68.7317 487.728 68.1178 496.854 59.7161 492.263C47.0301 485.331 49.0488 459.451 51.6214 447.571C56.1993 426.438 66.8432 405.966 71.4644 384.69C72.1618 384.67 72.1518 386.36 72.2519 386.941C73.5565 394.479 74.2572 402.038 75.9088 409.53C80.6702 431.143 95.852 464.372 87.764 485.571C87.2434 486.932 85.9255 489.476 84.8944 490.436V490.439Z" />
<path d="M138.027 482.17L136.255 489.062C131.287 495.364 124.654 494.02 121.22 487.018C111.381 466.953 128.688 429.266 133.112 408.126C134.767 400.217 135.094 392.092 136.859 384.216C138.204 389.505 139.572 394.826 141.187 400.044C149.105 425.588 164.23 453.035 157.016 480.29C155.982 484.201 154.28 488.602 150.923 491.069C142.572 497.208 138.791 489.929 138.027 482.167V482.17Z" />
</svg>
