<svg width="208" height="590" viewBox="0 0 208 590" xmlns="http://www.w3.org/2000/svg">
<g clip-path="url(#clip0_158_87)">
<path d="M207 303C206.5 303.5 205.028 304.147 205.037 303.777C205.045 303.408 204.109 294.015 203.606 290.32C203.509 289.61 203.379 287.493 202.731 287.219C202.314 289.52 203.142 291.851 203.215 293.995C203.275 295.739 203.519 302.18 203.132 303.324C202.745 304.468 199.602 304.644 198.507 304.561C198.414 295.442 198.01 286.233 197.099 277.147C196.058 266.767 192.501 253.193 192.398 243.377C192.341 238.043 195.454 228.853 196.488 223.102C197.166 219.337 197.209 215.443 198.274 211.769C207.82 224.435 208.314 237.976 207.906 253.26C207.559 266.287 205.901 279.597 205.971 292.608C205.99 295.894 207.5 302.5 207 303Z" />
<path d="M2.0022 302.976C2.5022 303.476 3.97375 304.123 3.96523 303.753C3.95672 303.383 4.89281 293.99 5.39665 290.296C5.49341 289.586 5.62354 287.468 6.27085 287.195C6.68793 289.496 5.86046 291.826 5.78705 293.97C5.72699 295.714 5.48342 302.156 5.87047 303.3C6.25752 304.443 9.40064 304.62 10.4951 304.537C10.5885 295.417 10.9922 286.208 11.9031 277.122C12.9441 266.743 16.501 253.169 16.6045 243.353C16.6612 238.018 13.5481 228.829 12.5137 223.077C11.8364 219.313 11.793 215.419 10.7286 211.744C1.18248 224.411 0.688653 237.951 1.09572 253.236C1.44274 266.263 3.10105 279.573 3.03098 292.583C3.01266 295.87 1.5022 302.476 2.0022 302.976Z" />
<path d="M196.639 305.024L190.119 305.441C189.548 299.613 188.934 294.301 187.5 288.617C183.963 274.603 177.269 261.489 174.75 246.998C173.272 238.489 173.449 230.19 174.14 221.605L183.145 233.921C184.807 236.916 187.9 240.377 188.918 243.617C191.337 251.336 192.715 265.91 193.766 274.389C195.027 284.559 195.781 294.822 196.642 305.028H196.639V305.024Z" />
<path d="M12.3636 305L18.8834 305.417C19.454 299.588 20.0679 294.277 21.5027 288.592C25.0395 274.578 31.7329 261.465 34.252 246.974C35.7302 238.465 35.5533 230.166 34.8626 221.58L25.857 233.897C24.1954 236.891 21.1023 240.352 20.0846 243.593C17.6655 251.312 16.2875 265.886 15.2365 274.365C13.9752 284.534 13.2211 294.797 12.3603 305.003H12.3636V305Z" />
</g>
<defs>
<clipPath id="clip0_158_87">
<rect width="208" height="590" />
</clipPath>
</defs>
</svg>
