<svg width="208" height="590" viewBox="0 0 208 590" xmlns="http://www.w3.org/2000/svg">
<path d="M151.354 260.309C159.088 269.071 157.977 277.807 159.655 288.326C160.96 296.499 163.179 304.614 164.223 312.817C165.938 326.264 165.174 339.824 164.28 353.291L161.354 340.994C154.513 318.275 127.17 328.648 111.688 314.36C103.469 306.775 105.585 286.556 109.299 277.007C115.868 260.115 135.415 242.247 151.354 260.309Z" />
<path d="M44.7311 352.821L43.3096 339.487C42.4922 318.745 47.0133 298.523 49.9596 278.144C56.5728 232.374 100.907 255.431 102.422 293.991C103.623 324.597 81.6611 319.725 60.6736 326.344C49.0053 330.025 45.5786 341.745 44.7311 352.821Z" />
</svg>
