<svg width="208" height="590" viewBox="0 0 208 590" xmlns="http://www.w3.org/2000/svg">
<path d="M85.5183 434.364L81.5377 421.71C72.4853 393.362 74.5607 363.577 76.1657 334.329C76.2491 332.822 75.7152 326.941 76.5961 326.324C83.1493 324.77 92.5953 322.759 97.5469 317.978C98.3911 317.165 99.0517 315.497 100.053 314.867C99.9126 327.224 99.5289 339.771 98.1241 352.064C96.299 368.035 92.0214 383.633 89.8226 399.534C88.2143 411.151 88.3177 422.94 85.5216 434.367H85.5183V434.364Z" />
<path d="M131.898 326.15L133.833 366.161C134.243 381.229 133.216 396.26 129.836 410.94L123.036 434.364C122.972 429.946 121.314 425.748 120.743 421.423C120.099 416.562 120.303 411.357 119.746 406.486C118.404 394.766 115.368 383.649 113.333 372.123C110.009 353.284 108.741 334.009 108.501 314.864L111.558 318.128C117.397 322.716 124.567 325.173 131.898 326.147V326.15Z" />
<path d="M149.285 414.215L146.122 406.833C136.683 381.432 135.011 354.005 135.692 327.051C144.781 328.658 152.942 329.208 157.503 338.284C164.303 351.811 163.022 371.71 159.839 386.104C158.558 391.902 155.121 399.761 154.494 405.129C153.88 410.367 154.74 416.582 154.464 421.97C154.31 424.918 153.376 428.085 153.503 431.086C152.805 431.203 152.922 430.209 152.802 429.689C152.338 427.662 151.864 424.941 151.637 422.88C150.733 414.618 150.533 405.469 152.098 397.35C150.686 397.12 151.344 397.693 151.15 398.487C150.71 400.271 149.288 406.016 149.288 407.423V414.218H149.285V414.215Z" />
<path d="M72.8623 327.051C73.4396 356.659 71.1773 386.2 59.7326 413.745L58.1844 401.945L56.9298 397.347C57.6706 405.976 57.5471 414.658 56.8664 423.294L55.0546 431.083C55.1414 427.939 54.2472 424.591 54.0937 421.497C53.8334 416.235 54.6342 410.254 54.0636 405.126C53.3796 398.98 49.8094 391.375 48.3379 385.073C45.1515 371.433 43.9636 348.5 52.045 336.463C57.0333 329.038 64.6942 328.448 72.8623 327.051Z" />
</svg>
