<svg width="208" height="590" viewBox="0 0 208 590" xmlns="http://www.w3.org/2000/svg">
<path d="M126.332 56.4156L124.571 83.6831C117.307 83.1563 109.929 82.6862 106.152 82.3995C105.789 75.0741 105.308 67.7554 104.677 60.4467L103.81 56.8691C103.696 60.8735 102.712 64.8446 102.402 68.8224C102.058 73.2369 101.778 77.6848 101.558 82.1627C97.9074 82.3461 90.0529 82.9529 83.9969 83.4431L82.2218 56.4156C76.5028 56.7524 73.6633 47.0563 73.3397 42.5684C73.0327 38.3139 73.016 34.5129 78.2512 37.1903C78.9119 37.1069 78.021 36.5901 78.021 36.4834C78.021 32.3256 77.5739 26.8507 78.021 22.893H78.0243C80.4934 1.02693 108.968 -7.92888 123.513 8.34896C131.024 16.758 130.49 26.6374 130.069 37.1836C131.354 35.9866 133.316 35.7265 134.314 37.3903C136.336 40.7646 133.132 57.3759 126.332 56.4156Z" />
</svg>
