<svg width="208" height="590" viewBox="0 0 208 590" xmlns="http://www.w3.org/2000/svg">
<path d="M138.031 249.726C136.576 249.719 135.221 249.049 133.963 248.405C123.596 243.107 115.305 227.14 111.431 216.567C110.373 213.683 106.713 203.306 107.177 200.869C107.49 199.219 110.967 193.444 112.051 191.65C119.022 180.13 128.771 170.047 135.225 158.107C143.026 157.834 150.296 156.767 156.542 151.769C157.563 150.952 162.218 145.6 162.642 145.69C163.319 146.12 163.296 146.604 163.372 147.307C164.937 161.271 161.891 182.974 158.347 196.691C153.539 215.303 139.582 229.907 138.034 249.729L138.031 249.726Z" />
<path d="M73.2593 157.947C81.1605 173.311 94.6506 185.165 101.404 201.202C97.9839 214.783 92.8788 228.583 84.0968 239.63C81.5109 242.881 74.8342 250.083 70.3097 249.272C69.5323 246.325 69.252 243.214 68.5046 240.256C64.4372 224.102 54.2138 211.989 50.0263 195.461C46.7664 182.604 43.6566 160.308 45.1781 147.304C45.2715 146.497 45.2982 145.677 46.3626 145.69C52.8457 154.253 62.542 158.284 73.2527 157.947H73.2593Z" />
</svg>
