<svg width="208" height="590" viewBox="0 0 208 590" xmlns="http://www.w3.org/2000/svg">
<g clip-path="url(#clip0_158_87)">
<path d="M85.5182 493.417C84.8976 498.478 84.0802 503.563 83.6531 508.651C82.7989 518.774 81.928 530.394 81.7512 540.49C81.6144 548.298 83.1325 554.73 83.1626 562.519C83.1726 565.056 82.9524 568.054 83.1859 570.501C83.8633 577.64 89.3387 588.33 77.6705 589.83C68.2578 591.04 66.6161 585.505 60.123 583.712C56.0123 582.575 47.3236 582.945 46.6229 577.02C45.9623 571.428 54.2038 570.195 58.0143 567.844C58.6782 567.434 63.1127 564.013 63.2595 563.713C63.9268 562.356 63.3329 557.978 63.5397 556.024C63.7433 554.093 64.7042 551.936 64.8911 549.876C65.3916 544.337 64.1403 537.322 63.3562 531.744C61.471 518.37 58.141 505.233 55.5284 492.006C59.8261 496.044 68.4246 498.438 70.5334 491.073L74.1069 494.757C78.0041 496.494 82.1783 496.077 85.5249 493.413H85.5182V493.417ZM72.3952 538.876C71.808 538.102 71.541 538.923 71.4576 539.569C70.6301 545.995 71.9781 553.527 71.3975 560.138C70.9771 564.926 69.0652 569.908 67.7106 574.492C68.3779 574.379 68.6148 573.629 68.8984 573.109C70.6101 569.958 73.3628 562.696 73.7499 559.212C74.5073 552.39 72.5287 545.631 72.3919 538.879H72.3952V538.876Z" />
<path d="M152.572 491.546C153.369 491.419 152.975 492.1 152.912 492.583C150.606 510.305 141.721 532.931 143.71 550.776C143.963 553.046 145.261 555.654 145.485 557.901C145.688 559.965 145.064 561.399 145.098 562.989C145.134 564.743 150.136 568.027 151.784 568.947C155.488 571.018 166.148 573.325 160.55 579.891C157.78 583.138 153.092 582.815 149.572 583.445C141.931 584.809 138.331 592.184 128.651 589.26C119.772 586.579 124.794 575.189 125.375 569.098C125.738 565.27 124.687 561.619 124.891 557.834C125.261 550.993 126.549 547.251 126.319 539.573C125.862 524.312 124.847 509.044 123.036 493.887C123.363 493.53 126.069 495.287 126.786 495.517C131.124 496.921 134.941 494.744 137.8 491.549C139.766 495.24 141.501 496.227 145.772 495.757C147.89 495.524 151.914 493.69 152.572 491.543V491.546ZM140.84 574.489C139.465 569.628 137.487 564.82 137.1 559.722C136.753 555.167 137.483 550.649 137.58 546.115L136.632 538.406C135.795 545.054 134.053 552.506 134.801 559.208C135.158 562.402 138.067 570.204 139.652 573.102C139.936 573.622 140.173 574.372 140.84 574.486V574.489Z" />
<path d="M184.557 363.027C183.983 363.141 183.189 363.341 182.665 363.037C180.676 361.894 182.041 358.746 183.039 357.279C187.55 350.654 191.03 349.443 192.675 340.197C193.269 336.853 194.316 329.925 189.582 329.595C187.239 330.988 187.893 345.772 181.153 344.652L179.875 341.008C182.952 332.562 181.914 317.795 187.053 310.676C190.429 305.998 198.704 308.512 203.836 307.772L206.219 308.052C205.789 309.631 205.325 311.246 205.251 312.837C204.88 320.759 207.049 330.211 205.971 338.024C205.668 340.214 201.143 350.684 199.699 352.374C198.244 354.075 186.415 362.664 184.557 363.027Z" />
<path d="M24.4454 363.003C25.0193 363.116 25.8134 363.316 26.3373 363.013C28.3259 361.869 26.9612 358.722 25.9636 357.254C21.4524 350.629 17.9723 349.419 16.3273 340.173C15.7334 336.829 14.6857 329.9 19.4204 329.57C21.7627 330.964 21.1088 345.748 27.8488 344.628L29.1267 340.983C26.0503 332.538 27.088 317.77 21.9496 310.652C18.5729 305.974 10.298 308.488 5.16624 307.747L2.78355 308.028C3.21346 309.607 3.67756 311.222 3.7515 312.812C4.12187 320.734 1.95306 330.187 3.0308 337.999C3.33443 340.19 7.85892 350.659 9.30369 352.35C10.7585 354.05 22.5869 362.639 24.4454 363.003Z" />
<path d="M189.608 239.88C187.947 235.549 183.372 232.224 181.38 228.183C177.823 220.971 179.225 206.847 180.843 199.022C181.243 197.088 181.657 194.601 182.805 193.027C184.523 193.027 191.617 208.584 192.421 211.055C194.63 217.82 193.542 224.646 192.278 231.544C192.141 232.294 190.516 240.507 189.608 239.883V239.88Z" />
<path d="M19.3938 239.855C21.0555 235.524 25.63 232.2 27.622 228.159C31.1789 220.947 29.7775 206.823 28.1592 198.997C27.7588 197.063 27.3451 194.576 26.1972 193.002C24.4789 193.002 17.3852 208.56 16.581 211.031C14.3722 217.796 15.4599 224.621 16.7245 231.52C16.8613 232.27 18.4862 240.482 19.3938 239.859V239.855Z" />
</g>
<defs>
<clipPath id="clip0_158_87">
<rect width="208" height="590" />
</clipPath>
</defs>
</svg>
