<svg width="208" height="590" viewBox="0 0 208 590" xmlns="http://www.w3.org/2000/svg">
<path d="M154.437 259.565C151.594 256.521 149.272 253.93 145.675 251.693C144.434 250.919 141.514 250.276 141.291 249.012C141.114 248.012 142.105 243.044 142.392 241.66C144.21 232.874 148.698 225.106 152.105 216.923L153.032 222.315C153.983 234.692 155.888 247.162 154.437 259.568V259.565Z" />
<path d="M67.2435 249.719C61.4177 250.329 58.2279 255.027 54.7177 258.962C54.4408 259.272 54.7444 259.865 53.65 259.559C53.006 245.265 55.1515 231.137 55.9957 216.917L63.4998 232.604L67.2435 249.716V249.719Z" />
</svg>
