<svg width="208" height="590" viewBox="0 0 208 590" xmlns="http://www.w3.org/2000/svg">
<path d="M137.096 154.586L145.765 128.816C148.618 131.756 151.224 134.894 154.193 137.731C155.518 138.995 159.308 141.469 160.112 142.623C161.16 144.13 157.7 147.057 156.539 148.018C151.077 152.559 144.207 154.846 137.096 154.586Z" />
<path d="M63.4864 129.756L70.9872 154.589C61.7514 155.136 53.8235 150.495 48.1345 143.583L63.4864 129.756Z" />
<path d="M102.038 197.725C95.8352 183.741 84.6307 172.701 77.4102 159.311C74.4139 153.756 71.5377 147.071 69.3355 141.139C65.5017 130.823 63.79 118.726 55.6252 110.794C63.5898 111.347 72.2718 111.858 80.0962 113.515C81.224 113.755 85.1012 115.022 87.8539 115.965C89.2587 116.446 90.6334 117.006 91.9914 117.603C93.9733 118.476 96.9696 119.446 100.89 119.723C100.93 139.085 101.538 158.514 102.015 177.362C102.175 183.711 102.845 190.136 102.502 196.564C102.475 197.095 102.809 197.851 102.038 197.725Z" />
<path d="M106.329 197.725C112.532 183.741 123.736 172.701 130.957 159.311C133.953 153.756 136.829 147.071 139.032 141.139C142.865 130.823 144.577 118.726 152.742 110.794C144.777 111.348 136.095 111.858 128.271 113.515C127.143 113.755 123.266 115.022 120.513 115.965C119.108 116.446 117.734 117.006 116.376 117.603C114.394 118.476 111.397 119.446 107.477 119.723C107.437 139.085 106.83 158.514 106.352 177.362C106.192 183.711 105.522 190.136 105.865 196.564C105.892 197.095 105.558 197.851 106.329 197.725Z" />
</svg>
