<svg width="208" height="590" viewBox="0 0 208 590" xmlns="http://www.w3.org/2000/svg">
<path d="M17.0703 164.429L15.8858 160.701C12.1655 143.99 16.1628 114.658 35.1083 108.643C47.6707 104.656 56.8399 112.278 60.9373 123.621C61.0073 124.371 54.5109 132.26 53.4198 133.507C45.9624 142.043 41.4145 143.296 32.6792 149.328C26.9935 153.252 20.734 158.584 17.0703 164.426V164.429Z" />
<path d="M183.342 114.922C193.806 125.675 196.489 150.565 191.941 164.429C190.906 163.635 190.269 162.165 189.375 161.148C185.818 157.103 181.18 152.952 176.816 149.801C171.627 146.057 165.278 143.43 160.533 139.365C158.464 137.595 148.271 126.202 147.96 124.264C147.44 121.003 154.38 112.464 157.099 110.614C165.438 104.939 176.719 108.11 183.346 114.918H183.342V114.922Z" />
</svg>
