<svg width="208" height="590" viewBox="0 0 208 590" xmlns="http://www.w3.org/2000/svg">
<path d="M101.458 84.5834C100.924 95.4798 100.717 106.533 100.71 117.623C100.71 117.966 100.383 118.213 100.053 118.116C100.053 118.116 88.6548 114.592 87.824 114.182C82.8857 111.748 75.4984 109.844 71.6145 109.337C64.1638 108.37 56.5662 108.193 49.1055 107.21C48.6017 107.143 48.4849 106.469 48.9353 106.239L70.2732 95.3631C70.2732 95.3631 70.2999 95.3497 70.3132 95.3397C74.8844 92.4156 79.9194 90.0549 83.81 86.2039C83.9167 86.0972 83.9735 85.9505 83.9601 85.8004C83.9401 85.5203 84.1503 85.2736 84.4306 85.2536C90.1096 84.7968 97.1799 84.25 100.92 84.0433C101.224 84.0266 101.474 84.2767 101.461 84.5801L101.458 84.5834Z" />
<path d="M106.91 84.5834C107.443 95.4798 107.65 106.533 107.657 117.623C107.657 117.966 107.984 118.213 108.314 118.116C108.314 118.116 119.712 114.592 120.543 114.182C125.481 111.748 132.869 109.844 136.753 109.337C144.203 108.37 151.801 108.193 159.262 107.21C159.765 107.143 159.882 106.469 159.432 106.239L138.094 95.3631C138.094 95.3631 138.067 95.3498 138.054 95.3397C133.483 92.4156 128.448 90.055 124.557 86.2039C124.45 86.0972 124.394 85.9505 124.407 85.8004C124.427 85.5204 124.217 85.2736 123.937 85.2536C118.258 84.7968 111.187 84.25 107.447 84.0433C107.143 84.0266 106.893 84.2767 106.906 84.5801L106.91 84.5834Z" />
</svg>
