<svg width="208" height="590" viewBox="0 0 208 590" xmlns="http://www.w3.org/2000/svg">
<path d="M196.629 214.573L189.845 199.102C187.27 195.644 185.274 190.316 182.705 187.048C182.405 186.665 182.715 186.192 181.634 186.455C178.674 198.405 176.038 210.122 177.877 222.542C176.215 220.865 175.057 218.411 174.05 216.297C164.096 195.461 165.294 169.604 166.632 147.091C167.206 146.507 172.368 149.948 173.256 150.542C195.488 165.439 197.019 181.374 197.593 206.817C197.656 209.638 197.306 211.865 196.629 214.573Z" />
<path d="M12.3734 214.548L19.1568 199.077C21.7327 195.62 23.728 190.292 26.2972 187.024C26.5975 186.641 26.2872 186.167 27.3683 186.431C30.3279 198.381 32.9639 210.097 31.1254 222.517C32.787 220.84 33.9448 218.386 34.9525 216.272C44.9057 195.436 43.7079 169.579 42.3699 147.066C41.796 146.483 36.6342 149.924 35.7466 150.517C13.5145 165.415 11.983 181.349 11.4091 206.793C11.3457 209.614 11.6961 211.841 12.3734 214.548Z" />
</svg>
